<svg viewBox="0 0 1024 1024" xmlns="http://www.w3.org/2000/svg">
  <path
    d="M298.425 191.023c-56.075 37.617-102.832 91.055-132.539 151.348-23.203 46.934-38.848 109.336-38.848 153.984v15.645h134.473c74.004 0 134.473-0.352 134.473-0.703 0-7.207 4.747-30.762 7.911-39.023 7.911-21.094 24.083-42.188 41.309-53.789 4.395-2.989 8.262-5.801 8.614-5.977 0.703-0.703-133.945-234.492-135.176-234.492-0.528 0-9.668 5.977-20.215 13.008zM702.195 183.641c-14.59 24.434-130.43 226.406-130.43 227.636 0 0.879 4.922 5.098 10.898 9.317 12.832 9.492 25.664 24.786 33.047 39.727 6.153 12.481 12.305 34.98 12.305 45v6.68h270.703v-8.614c0-42.364-13.008-100.547-32.344-144.844-31.465-72.246-88.418-137.637-153.457-176.133l-7.207-4.395-3.516 5.625zM501.453 435.886c-42.715 7.207-72.422 47.637-65.039 88.77 5.273 29.531 24.258 51.503 53.086 61.348 21.445 7.208 50.45 2.286 68.906-11.778 19.161-14.59 29.18-33.926 30.41-58.711 1.406-23.379-6.328-42.364-23.73-59.063-16.523-15.997-42.188-24.258-63.633-20.567zM452.761 616.063c-4.747 6.153-131.133 226.934-131.309 229.395-0.176 3.691 29.707 18.984 57.832 29.355 82.266 30.234 171.563 31.641 255.411 3.692 19.688-6.504 60.645-24.609 68.555-30.234 1.582-1.23-15.117-31.465-64.688-117.422-36.739-63.633-67.148-116.191-67.676-116.543-0.352-0.527-5.45 1.231-11.075 3.692-26.367 11.953-57.481 13.183-84.727 3.516-8.262-2.989-16.172-5.801-17.754-6.504-1.582-0.703-3.516-0.176-4.57 1.055z" fill="#f4ea2a"></path>
</svg>
